<?xml version="1.0" encoding="UTF-8"?>
<svg xmlns="http://www.w3.org/2000/svg" xmlns:xlink="http://www.w3.org/1999/xlink" width="712px" height="712px" viewBox="0 0 712 712" version="1.1">
<g id="surface1">
<path style=" stroke:none;fill-rule:nonzero;fill:rgb(100%,100%,100%);fill-opacity:1;" d="M 307.851562 10.386719 C 311.609375 10.386719 315.367188 10.378906 319.128906 10.371094 C 326.964844 10.359375 334.800781 10.375 342.632812 10.398438 C 351.609375 10.429688 360.585938 10.421875 369.566406 10.390625 C 377.359375 10.363281 385.15625 10.359375 392.949219 10.375 C 397.570312 10.382812 402.183594 10.382812 406.804688 10.367188 C 432.648438 10.292969 457.867188 11.558594 482.199219 21.121094 C 483.265625 21.527344 484.335938 21.9375 485.4375 22.355469 C 502.3125 29.039062 517.597656 38.042969 531.21875 50.0625 C 532.355469 51.03125 533.492188 52.003906 534.664062 53 C 566.636719 80.867188 589.210938 120.105469 593.796875 162.703125 C 594.558594 175.292969 594.382812 187.921875 594.359375 200.53125 C 594.363281 204.324219 594.375 208.121094 594.386719 211.914062 C 594.410156 221.105469 594.414062 230.292969 594.40625 239.484375 C 594.398438 246.964844 594.402344 254.445312 594.410156 261.925781 C 594.410156 262.996094 594.410156 264.0625 594.414062 265.164062 C 594.414062 267.339844 594.417969 269.511719 594.417969 271.6875 C 594.4375 292.019531 594.429688 312.351562 594.414062 332.679688 C 594.402344 351.222656 594.417969 369.761719 594.453125 388.300781 C 594.484375 407.40625 594.5 426.507812 594.488281 445.613281 C 594.484375 456.308594 594.488281 467.007812 594.511719 477.707031 C 594.53125 486.816406 594.535156 495.925781 594.507812 505.03125 C 594.496094 509.667969 594.496094 514.300781 594.515625 518.933594 C 594.691406 566.085938 584.199219 607.222656 553.46875 643.859375 C 552.539062 645 551.613281 646.140625 550.65625 647.3125 C 543.648438 655.609375 535.625 662.273438 527.046875 668.890625 C 525.859375 669.835938 524.671875 670.785156 523.449219 671.757812 C 492.890625 695.25 454.949219 705.226562 416.898438 705.269531 C 415.40625 705.277344 413.914062 705.285156 412.378906 705.292969 C 407.480469 705.3125 402.578125 705.320312 397.679688 705.328125 C 395.148438 705.335938 395.148438 705.335938 392.566406 705.339844 C 383.625 705.363281 374.6875 705.375 365.75 705.382812 C 356.585938 705.386719 347.421875 705.421875 338.257812 705.460938 C 331.152344 705.488281 324.042969 705.496094 316.9375 705.496094 C 313.5625 705.5 310.1875 705.511719 306.8125 705.53125 C 250.347656 705.816406 204.585938 692.058594 162.703125 652.722656 C 129.839844 618.71875 113.796875 573.636719 113.835938 526.878906 C 113.832031 525.382812 113.828125 523.886719 113.824219 522.34375 C 113.8125 517.363281 113.808594 512.382812 113.808594 507.398438 C 113.800781 503.816406 113.792969 500.230469 113.785156 496.644531 C 113.765625 486.921875 113.757812 477.203125 113.753906 467.480469 C 113.75 461.398438 113.742188 455.3125 113.738281 449.226562 C 113.71875 432.34375 113.707031 415.457031 113.699219 398.570312 C 113.699219 397.492188 113.699219 396.410156 113.699219 395.300781 C 113.699219 394.21875 113.699219 393.136719 113.699219 392.023438 C 113.699219 389.832031 113.699219 387.640625 113.695312 385.453125 C 113.695312 384.367188 113.695312 383.277344 113.695312 382.160156 C 113.691406 364.585938 113.667969 347.011719 113.632812 329.441406 C 113.601562 311.34375 113.582031 293.25 113.582031 275.152344 C 113.582031 265.015625 113.574219 254.875 113.546875 244.738281 C 113.523438 235.1875 113.523438 225.636719 113.535156 216.085938 C 113.535156 212.605469 113.527344 209.121094 113.515625 205.636719 C 113.421875 180.25 113.761719 154.035156 122.460938 129.851562 C 122.875 128.664062 123.289062 127.480469 123.710938 126.257812 C 139.695312 82.234375 171.898438 46.429688 214.207031 26.269531 C 244.515625 12.523438 274.933594 10.269531 307.851562 10.386719 Z M 190.515625 72.3125 C 189.566406 73.0625 188.617188 73.8125 187.640625 74.582031 C 159.632812 97.105469 143.890625 133.792969 139.4375 168.652344 C 138.113281 181.980469 138.488281 195.460938 138.523438 208.839844 C 138.515625 212.445312 138.507812 216.054688 138.5 219.660156 C 138.480469 228.382812 138.484375 237.105469 138.5 245.828125 C 138.507812 252.925781 138.507812 260.023438 138.503906 267.121094 C 138.503906 268.136719 138.503906 269.152344 138.503906 270.199219 C 138.5 272.265625 138.5 274.332031 138.5 276.394531 C 138.488281 295.691406 138.5 314.984375 138.523438 334.28125 C 138.542969 350.785156 138.539062 367.285156 138.519531 383.789062 C 138.496094 403.023438 138.488281 422.257812 138.5 441.488281 C 138.5 443.546875 138.503906 445.601562 138.503906 447.660156 C 138.503906 448.671875 138.503906 449.683594 138.507812 450.726562 C 138.511719 457.800781 138.503906 464.878906 138.492188 471.957031 C 138.480469 481.507812 138.492188 491.058594 138.515625 500.613281 C 138.519531 504.101562 138.519531 507.585938 138.507812 511.074219 C 138.390625 560.378906 149.25 601.523438 183.910156 637.863281 C 213.011719 665.867188 250.582031 680.195312 290.785156 680.238281 C 292.292969 680.246094 293.804688 680.253906 295.359375 680.261719 C 300.332031 680.28125 305.304688 680.289062 310.277344 680.296875 C 311.988281 680.300781 313.695312 680.304688 315.457031 680.308594 C 323.578125 680.328125 331.703125 680.34375 339.824219 680.347656 C 350.050781 680.355469 360.273438 680.386719 370.5 680.429688 C 377.695312 680.457031 384.890625 680.464844 392.085938 680.464844 C 395.507812 680.46875 398.933594 680.480469 402.355469 680.5 C 444.15625 680.707031 483.714844 673.992188 515.921875 645.25 C 517.039062 644.328125 518.160156 643.40625 519.3125 642.457031 C 550.128906 616.359375 566.347656 579.195312 569.859375 539.546875 C 570.320312 533.09375 570.351562 526.664062 570.34375 520.195312 C 570.34375 518.746094 570.347656 517.292969 570.351562 515.800781 C 570.359375 510.984375 570.359375 506.167969 570.359375 501.347656 C 570.363281 497.878906 570.367188 494.40625 570.371094 490.9375 C 570.382812 482.507812 570.386719 474.082031 570.386719 465.65625 C 570.390625 458.796875 570.390625 451.941406 570.398438 445.082031 C 570.410156 425.59375 570.414062 406.101562 570.414062 386.613281 C 570.414062 385.5625 570.414062 384.515625 570.414062 383.4375 C 570.414062 382.386719 570.414062 381.335938 570.414062 380.253906 C 570.414062 363.257812 570.425781 346.261719 570.445312 329.265625 C 570.464844 311.765625 570.476562 294.265625 570.472656 276.769531 C 570.472656 266.964844 570.476562 257.15625 570.492188 247.351562 C 570.507812 238.121094 570.507812 228.894531 570.496094 219.664062 C 570.496094 216.292969 570.5 212.921875 570.507812 209.546875 C 570.644531 175.285156 570.644531 175.285156 563.8125 141.84375 C 563.457031 140.691406 563.097656 139.542969 562.730469 138.355469 C 550.941406 102.203125 524.421875 70.121094 490.601562 52.492188 C 468.769531 41.625 446.894531 35.71875 422.457031 35.773438 C 420.835938 35.765625 419.210938 35.761719 417.539062 35.753906 C 412.214844 35.734375 406.890625 35.734375 401.566406 35.738281 C 398.777344 35.734375 395.992188 35.730469 393.203125 35.726562 C 384.449219 35.710938 375.699219 35.707031 366.945312 35.71875 C 357.972656 35.726562 349 35.707031 340.027344 35.679688 C 332.273438 35.652344 324.519531 35.644531 316.765625 35.652344 C 312.15625 35.652344 307.546875 35.648438 302.9375 35.628906 C 260.355469 35.488281 223.15625 43.425781 190.515625 72.3125 Z M 190.515625 72.3125 "/>
<path style=" stroke:none;fill-rule:nonzero;fill:rgb(100%,100%,100%);fill-opacity:1;" d="M 393.546875 119.59375 C 394.875 120.511719 394.875 120.511719 396.230469 121.453125 C 408.542969 130.917969 414.785156 145.246094 418.578125 159.921875 C 419.304688 165.949219 419.359375 171.886719 419.316406 177.949219 C 419.324219 180.445312 419.324219 180.445312 419.332031 182.988281 C 419.335938 186.476562 419.328125 189.96875 419.304688 193.460938 C 419.273438 198.753906 419.304688 204.046875 419.339844 209.339844 C 419.335938 212.753906 419.328125 216.167969 419.316406 219.582031 C 419.328125 221.140625 419.339844 222.699219 419.351562 224.304688 C 419.132812 242.914062 413.722656 258.433594 401.195312 272.214844 C 400.046875 273.246094 398.902344 274.28125 397.71875 275.34375 C 395.867188 277.066406 395.867188 277.066406 393.980469 278.820312 C 380.066406 290.132812 363.792969 293.398438 346.265625 292.03125 C 328.695312 289.523438 314.417969 281.4375 303.027344 267.859375 C 292.457031 253.347656 290.207031 239.828125 290.171875 222.265625 C 290.160156 219.613281 290.160156 219.613281 290.144531 216.910156 C 290.132812 213.175781 290.125 209.441406 290.125 205.707031 C 290.125 200.96875 290.085938 196.230469 290.039062 191.488281 C 290 186.914062 290.003906 182.339844 290 177.765625 C 289.980469 176.089844 289.960938 174.410156 289.9375 172.679688 C 290.039062 153.640625 295.847656 138.792969 308.8125 124.847656 C 316.253906 117.722656 324.121094 113.414062 333.75 109.859375 C 334.675781 109.515625 335.605469 109.175781 336.558594 108.820312 C 356.226562 102.816406 377.191406 108.023438 393.546875 119.59375 Z M 322.960938 144.726562 C 314.871094 155.929688 313.851562 167.519531 313.910156 181.042969 C 313.910156 182.351562 313.90625 183.664062 313.902344 185.015625 C 313.902344 187.765625 313.90625 190.519531 313.917969 193.273438 C 313.933594 197.457031 313.917969 201.640625 313.902344 205.824219 C 313.902344 208.515625 313.90625 211.203125 313.910156 213.894531 C 313.90625 215.128906 313.902344 216.363281 313.894531 217.636719 C 313.996094 231.441406 316.324219 242.398438 325.40625 253.09375 C 333.535156 260.949219 342.644531 264.910156 353.828125 266.132812 C 365.394531 264.914062 375.574219 261.59375 383.8125 253.09375 C 389.535156 245.089844 393.683594 237.964844 393.792969 227.996094 C 393.8125 226.566406 393.828125 225.136719 393.847656 223.664062 C 393.855469 222.117188 393.867188 220.570312 393.878906 218.972656 C 393.890625 217.378906 393.902344 215.78125 393.914062 214.136719 C 393.929688 210.75 393.945312 207.363281 393.957031 203.976562 C 393.980469 198.828125 394.042969 193.679688 394.105469 188.53125 C 394.117188 185.234375 394.128906 181.941406 394.140625 178.644531 C 394.164062 177.117188 394.1875 175.59375 394.210938 174.019531 C 394.179688 161.460938 391.589844 149.621094 382.421875 140.453125 C 374.375 133.269531 365.234375 130.132812 354.609375 128.804688 C 341.75 130.414062 331.441406 134.722656 322.960938 144.726562 Z M 322.960938 144.726562 "/>
<path style=" stroke:none;fill-rule:nonzero;fill:rgb(100%,100%,100%);fill-opacity:1;" d="M 354.695312 448.390625 C 360.171875 449.171875 360.171875 449.171875 363.5625 451.78125 C 367.59375 457.265625 367.359375 461.824219 367.410156 468.425781 C 367.425781 469.554688 367.4375 470.679688 367.453125 471.839844 C 367.496094 475.570312 367.53125 479.304688 367.566406 483.035156 C 367.59375 485.621094 367.621094 488.203125 367.652344 490.789062 C 367.730469 497.59375 367.796875 504.402344 367.863281 511.210938 C 367.933594 518.15625 368.011719 525.101562 368.089844 532.042969 C 368.238281 545.675781 368.378906 559.304688 368.515625 572.9375 C 369.472656 572.074219 370.429688 571.207031 371.414062 570.316406 C 372.667969 569.1875 373.921875 568.054688 375.214844 566.890625 C 376.457031 565.769531 377.703125 564.644531 378.984375 563.488281 C 382.503906 560.347656 386.105469 557.351562 389.808594 554.425781 C 396.703125 548.855469 403.210938 542.957031 409.65625 536.882812 C 420.769531 526.449219 420.769531 526.449219 427.617188 526.4375 C 431.816406 526.617188 433.707031 526.953125 437.4375 529.046875 C 440.34375 534.222656 441.003906 539.363281 439.4375 545.125 C 436.445312 548.5 436.445312 548.5 432.484375 552.078125 C 431.117188 553.371094 429.753906 554.667969 428.386719 555.96875 C 420.128906 563.667969 411.738281 571.042969 402.929688 578.113281 C 398.742188 581.585938 394.742188 585.226562 390.765625 588.929688 C 383.160156 596 375.246094 602.617188 367.125 609.09375 C 365.902344 610.101562 364.683594 611.113281 363.425781 612.152344 C 359.804688 614.9375 357.761719 615.820312 353.21875 616.046875 C 347.476562 614.265625 343.925781 611.53125 339.574219 607.441406 C 338.351562 606.3125 337.132812 605.183594 335.875 604.019531 C 334.714844 602.941406 333.554688 601.863281 332.359375 600.75 C 327.234375 596.175781 322.035156 591.691406 316.800781 587.242188 C 307.308594 579.15625 297.984375 570.949219 288.832031 562.480469 C 284.6875 558.671875 280.472656 554.964844 276.207031 551.296875 C 275.464844 550.636719 274.71875 549.976562 273.953125 549.296875 C 273.179688 548.648438 272.40625 548.003906 271.605469 547.335938 C 268.589844 543.679688 269.121094 540.179688 269.3125 535.617188 C 269.78125 532.609375 269.78125 532.609375 271.78125 529.046875 C 277.074219 526.074219 281.914062 526.078125 287.859375 527.046875 C 291.601562 528.988281 294.40625 531.597656 297.421875 534.523438 C 298.25 535.277344 299.078125 536.035156 299.933594 536.816406 C 302.425781 539.097656 304.875 541.414062 307.328125 543.734375 C 309.953125 546.152344 312.597656 548.546875 315.238281 550.949219 C 317.050781 552.613281 317.050781 552.613281 318.898438 554.3125 C 324.070312 558.933594 329.4375 563.292969 334.84375 567.636719 C 337.921875 570.15625 337.921875 570.15625 340.703125 572.9375 C 340.707031 571.488281 340.707031 570.042969 340.710938 568.550781 C 340.730469 554.902344 340.792969 541.253906 340.886719 527.605469 C 340.933594 520.589844 340.96875 513.574219 340.976562 506.558594 C 340.980469 499.785156 341.019531 493.015625 341.082031 486.242188 C 341.101562 483.660156 341.105469 481.078125 341.101562 478.492188 C 341.09375 474.875 341.128906 471.257812 341.175781 467.636719 C 341.164062 466.570312 341.152344 465.503906 341.140625 464.402344 C 341.261719 458.820312 341.886719 456.378906 345.445312 451.984375 C 348.984375 449.21875 350.3125 448.242188 354.695312 448.390625 Z M 354.695312 448.390625 "/>
<path style=" stroke:none;fill-rule:nonzero;fill:rgb(100%,100%,100%);fill-opacity:1;" d="M 362.953125 360.171875 C 367.058594 365.460938 367.691406 369.554688 367.648438 376.164062 C 367.65625 377.699219 367.667969 379.234375 367.679688 380.8125 C 366.957031 386.539062 365.09375 390.476562 360.519531 394.070312 C 355.746094 395.394531 352.414062 394.820312 347.65625 393.546875 C 343.523438 389.601562 342.199219 387.292969 341.355469 381.597656 C 341.371094 379.804688 341.382812 378.011719 341.398438 376.164062 C 341.382812 374.371094 341.371094 372.578125 341.355469 370.730469 C 342.191406 365.070312 343.664062 362.789062 347.65625 358.78125 C 352.898438 356.070312 357.726562 358.082031 362.953125 360.171875 Z M 362.953125 360.171875 "/>
</g>
</svg>
